<svg width="34" height="34" viewBox="0 0 34 34" fill="none" xmlns="http://www.w3.org/2000/svg">
<path d="M33.1871 4.43857C34.1884 3.43736 34.1884 1.81407 33.1871 0.812857C32.1859 -0.188356 30.5626 -0.188356 29.5614 0.812857L19.1213 11.253C17.9497 12.4245 16.0503 12.4245 14.8787 11.253L4.43857 0.812857C3.43736 -0.188356 1.81407 -0.188356 0.812857 0.812857C-0.188356 1.81407 -0.188356 3.43736 0.812857 4.43857L11.253 14.8787C12.4245 16.0503 12.4245 17.9497 11.253 19.1213L0.812857 29.5614C-0.188356 30.5626 -0.188356 32.1859 0.812857 33.1871C1.81407 34.1884 3.43736 34.1884 4.43857 33.1871L14.8787 22.747C16.0503 21.5755 17.9497 21.5755 19.1213 22.747L29.5614 33.1871C30.5626 34.1884 32.1859 34.1884 33.1871 33.1871C34.1884 32.1859 34.1884 30.5626 33.1871 29.5614L22.747 19.1213C21.5755 17.9497 21.5755 16.0503 22.747 14.8787L33.1871 4.43857Z" fill="white"/>
</svg>
